<?xml version="1.0" ?><svg height="24" id="svg3171" version="1.1" viewBox="0 0 6.3499999 6.3500002" width="24" xmlns="http://www.w3.org/2000/svg" xmlns:cc="http://creativecommons.org/ns#" xmlns:dc="http://purl.org/dc/elements/1.1/" xmlns:inkscape="http://www.inkscape.org/namespaces/inkscape" xmlns:rdf="http://www.w3.org/1999/02/22-rdf-syntax-ns#" xmlns:sodipodi="http://sodipodi.sourceforge.net/DTD/sodipodi-0.dtd" xmlns:svg="http://www.w3.org/2000/svg"><defs id="defs3165"/><g id="layer1"><path d="m 1.5871947,0.52917117 c -0.1460761,5.82e-4 -0.2640291,0.1194395 -0.2634721,0.26548869 V 2.3819085 c 5.821e-4,0.145243 0.118202,0.2628418 0.2634721,0.2634225 1.021857,0 2.0437141,0 3.0655709,0 l 0.714992,0.7164054 c 0.166696,0.1693553 0.4548481,0.050109 0.453068,-0.1874947 V 2.3819085 0.79465986 C 5.8213548,0.64760017 5.7018557,0.52832317 5.5547707,0.52917117 c -1.3225259,0 -2.645051,0 -3.967576,0 z M 0.79471264,2.9087534 c -0.146884,-5.598e-4 -0.266098,0.1186318 -0.265538,0.2654883 v 1.5872487 0.7923332 c -0.0018,0.2376032 0.28637201,0.3568501 0.453068,0.1874946 L 1.6967167,5.0249128 c 1.021857,0 2.0437139,0 3.065571,0 0.14527,-5.821e-4 0.2628908,-0.1181796 0.2634719,-0.2634224 V 3.1742417 C 5.0263152,3.0281925 4.9083637,2.9093373 4.7622877,2.9087534 c -1.3225251,0 -2.64505,0 -3.96757506,0 z" id="path1405" style="color:#000000;font-style:normal;font-variant:normal;font-weight:normal;font-stretch:normal;font-size:medium;line-height:normal;font-family:sans-serif;font-variant-ligatures:normal;font-variant-position:normal;font-variant-caps:normal;font-variant-numeric:normal;font-variant-alternates:normal;font-variant-east-asian:normal;font-feature-settings:normal;font-variation-settings:normal;text-indent:0;text-align:start;text-decoration:none;text-decoration-line:none;text-decoration-style:solid;text-decoration-color:#000000;letter-spacing:normal;word-spacing:normal;text-transform:none;writing-mode:lr-tb;direction:ltr;text-orientation:mixed;dominant-baseline:auto;baseline-shift:baseline;text-anchor:start;white-space:normal;shape-padding:0;shape-margin:0;inline-size:0;clip-rule:nonzero;display:inline;overflow:visible;visibility:visible;opacity:1;isolation:auto;mix-blend-mode:normal;color-interpolation:sRGB;color-interpolation-filters:linearRGB;solid-color:#000000;solid-opacity:1;vector-effect:none;fill:#ffffff;fill-opacity:1;fill-rule:nonzero;stroke:none;stroke-width:0.529167;stroke-linecap:round;stroke-linejoin:round;stroke-miterlimit:4;stroke-dasharray:none;stroke-dashoffset:0;stroke-opacity:1;color-rendering:auto;image-rendering:auto;shape-rendering:auto;text-rendering:auto;enable-background:accumulate;stop-color:#000000;stop-opacity:1"/></g></svg>